<?xml version="1.0" encoding="utf-8"?>
<!-- Generator: Adobe Illustrator 19.2.1, SVG Export Plug-In . SVG Version: 6.00 Build 0)  -->
<svg version="1.1" id="layer" xmlns="http://www.w3.org/2000/svg" xmlns:xlink="http://www.w3.org/1999/xlink" x="0px" y="0px"
	 viewBox="0 0 652 652" style="enable-background:new 0 0 652 652;" xml:space="preserve">
<style type="text/css">
	.st0{fill:#45166A;}
</style>
<path class="st0" d="M158.3,305.9c-9.1-26.4-35.2-34.9-52.5-34.3c-21.2,0.6-32.8,17.6-33.4,17.6v-9.7c0-2.1,0-4.9-3.6-4.9L46,274.9
	c-3,0-5.2,0.6-5.2,4.2v139c0,3.3,1.5,5.5,6.1,5.5h22.8c3,0,6.1-2.4,5.8-5.5v-43.4c0-0.9,0-1.2,1.2,0c2.1,3,10.3,13.7,33.1,14
	C155.9,389.6,169.2,336.8,158.3,305.9z M127.7,332c-0.6,11.5-7.3,25.8-26.4,26.4c-20.6,0.6-27.9-12.4-28.5-27.9
	c-0.9-16.7,10-28.2,27.3-28.5c20,0,27.9,15.2,27.3,30H127.7z M355.8,271.9c-9.1,0-18.2-0.3-26.1,5.2c-5.2,3.3-9.1,7.9-12.1,13.4
	c-0.6,1.2-1.2,3-1.2,1.2v-12.1c-0.3-3-2.4-5.2-6.4-5.2h-23.4c-3.6,0-4.9,3.3-4.9,5.5v99.5c0,6.1,3,6.4,6.4,6.4H310
	c3.6,0,6.1-0.9,6.1-6.1v-37c0-8.2-0.3-17,2.4-24.9c1.8-6.1,6.1-10.6,11.5-13.4c5.5-2.4,11.2-3,17-3c4.9,0.6,13.7,3,13.7-4.9V277
	c0-2.4-2.1-5.2-4.9-4.9L355.8,271.9z M488.4,329.2c-0.3-33.1-20.6-49.2-33.4-53.7c-16.4-6.1-32.5-5.5-45.8,3.6
	c-3.9,2.8-7.4,6.2-10.3,10h-0.6v-10.3c0-2.4-2.4-4.6-4.9-4.6h-21.2c-3.3,0-5.2,3-5.2,6.1v138.1c0,1.5,0,5.2,5.2,5.5h23.4
	c2.4,0,5.8-0.6,5.8-6.1v-43.4c0.3-1.2,1.2,0,1.8,1.2c4.9,7,17,12.4,29.4,13c17.3,0.9,30.3-5.2,40.7-16.7c9.8-12.1,15-27.2,14.9-42.8
	H488.4z M453.5,331.4c0.3,15.2-11.2,27.3-26.4,27.3c-22.8-0.6-28.2-17.3-28.5-26.7c0-21.5,13.7-29.1,25.2-30
	C445.6,300.7,453.2,316.2,453.5,331.4z M640.8,331.1c2.4-42.5-33.4-75.9-84.4-51.6c-31.9,14.9-38.8,60.7-17.6,86.8
	c25.8,32.2,74.3,27,93.8,4.2c2.7-3,0.9-5.5-1.8-7.6L615.3,352c-2.1-1.5-5.2-0.9-6.7,0.9c-3,3.3-10.6,10.3-21.8,10
	c-14.3,0-23.1-9.1-25.8-21.5l74.6-0.6c4.6-0.3,4.2-3.9,4.9-10L640.8,331.1z M561.3,317.4c0.9-13.4,12.1-21.2,24.6-21.2
	c12.7,0.3,20,9.1,21.2,21.2h-45.5H561.3z M261.8,274.6h-20c-5.2,0-7.3,3.9-7.3,8.2c0,0,0.9,46.7-0.6,56.1
	c-1.2,9.7-5.2,18.5-19.4,19.4c-16.1,0.6-17.6-15.2-18.2-18.2v-58.6c0-3.6-2.7-7.3-7-7.3h-24.6c-2.1,0-3,1.8-3.3,3l0.3,5.2
	c0.6,1.8,4.2,6.7,6.1,10c8.9,17.9,11,38.4,5.8,57.7c-2.7,9.7-4.6,12.4-6.1,16.1c-2.1,4.9,6.7,15.2,14.9,18.2
	c11.2,4.2,38.2,9.1,53.1-14.3v8.2c0,3,2.4,7,7.6,7h18.8c3.6,0,6.7-3,6.7-7.3v-96.2C268.4,278,265.4,274.6,261.8,274.6z M514.8,228.5
	h-22.8c-5.2,0-6.7,0-6.7,4.9v34.6c0,5.2-0.9,12.4,1.8,16.7c5.2,8.2,13.4,21.8,14.3,36.1c0.6,13.7-0.9,27.3-6.7,40.1
	c-3,6.1-7.6,10.9-9.1,17.3c-0.6,2.4-0.9,4.8-0.9,7.3c0,1.8,0.9,5.2,4.9,5.2H513c2.7,0,6.1-0.6,6.1-5.2V233.7
	C519.1,230.6,517.6,228.5,514.8,228.5L514.8,228.5z"/>
</svg>
